inDegrees=no
num_controls=7
num_derivatives=13
num_iterations=124
num_multipliers=7
num_parameters=0
num_slacks=7
num_states=26
objective=0.445869
objective_accelerations=0.057087
objective_balance=0.003712
objective_effort=0.023062
objective_height=0.356457
objective_ligament=0.005552
solver_duration=1682.719390
status=Solve_Succeeded
success=true
DataType=double
version=3
OpenSimVersion=4.5
endheader
time	/jointset/ground_pelvis/pelvis_tilt/value	/jointset/ground_pelvis/pelvis_tx/value	/jointset/ground_pelvis/pelvis_ty/value	/jointset/hip_l/hip_flexion_l/value	/jointset/hip_l/hip_adduction_l/value	/jointset/hip_l/hip_rotation_l/value	/jointset/back/lumbar_extension/value	/jointset/patellofemoral_l/patellar_flexion_l/value	/jointset/knee_l/knee_flexion_l/value	/jointset/knee_l/knee_adduction_l/value	/jointset/knee_l/knee_rotation_l/value	/jointset/ankle_l/ankle_angle_l/value	/jointset/subtalar_l/subtalar_angle_l/value	/jointset/ground_pelvis/pelvis_tilt/speed	/jointset/ground_pelvis/pelvis_tx/speed	/jointset/ground_pelvis/pelvis_ty/speed	/jointset/hip_l/hip_flexion_l/speed	/jointset/hip_l/hip_adduction_l/speed	/jointset/hip_l/hip_rotation_l/speed	/jointset/back/lumbar_extension/speed	/jointset/patellofemoral_l/patellar_flexion_l/speed	/jointset/knee_l/knee_flexion_l/speed	/jointset/knee_l/knee_adduction_l/speed	/jointset/knee_l/knee_rotation_l/speed	/jointset/ankle_l/ankle_angle_l/speed	/jointset/subtalar_l/subtalar_angle_l/speed	/forceset/tau_hip_flexion_l	/forceset/tau_hip_adduction_l	/forceset/tau_hip_rotation_l	/forceset/tau_knee_flexion_l	/forceset/tau_ankle_angle_l	/forceset/tau_subtalar_angle_l	/forceset/tau_lumbar_extension	lambda_cid13_p0	lambda_cid13_p1	lambda_cid13_p2	lambda_cid13_p3	lambda_cid13_p4	lambda_cid13_p5	lambda_cid14_p0	/jointset/ground_pelvis/pelvis_tilt/accel	/jointset/ground_pelvis/pelvis_tx/accel	/jointset/ground_pelvis/pelvis_ty/accel	/jointset/hip_l/hip_flexion_l/accel	/jointset/hip_l/hip_adduction_l/accel	/jointset/hip_l/hip_rotation_l/accel	/jointset/back/lumbar_extension/accel	/jointset/patellofemoral_l/patellar_flexion_l/accel	/jointset/knee_l/knee_flexion_l/accel	/jointset/knee_l/knee_adduction_l/accel	/jointset/knee_l/knee_rotation_l/accel	/jointset/ankle_l/ankle_angle_l/accel	/jointset/subtalar_l/subtalar_angle_l/accel	gamma_cid13_p0	gamma_cid13_p1	gamma_cid13_p2	gamma_cid13_p3	gamma_cid13_p4	gamma_cid13_p5	gamma_cid14_p0
1	-0.5523928296980808	-0.08591650873578813	0.5753535339532887	1.837468850537855	-0.4675161638290939	0.01056352008901204	-0.2617964682912294	1.37302826632062	1.37302826632061	-0.08761307028588859	-0.1745300827957607	0.2078633237765884	-0.01729940410216775	-0.01610576884898949	0.01097913971933726	0.00284814114070237	-0.003312327996753515	-0.00246791845079629	0.003842143658592749	-2.431968517804522e-05	0.00184166589792626	0.001841665897926201	-0.0056321813348658	-3.555637076428118e-05	0.02118590302887896	0.009028657490841736	-0.3351814584353507	0.005620955321241097	-0.0001406623626306362	-0.3017615505008296	0.04191507258104408	0.03794880818010497	0.285771749053178	-26.41363287666473	-13.02641987958574	3.077372521305827	7.018367013746943	-642.4447984412323	-53.78937379192768	-1.665190818842114	1.553651976996207	0.257397649951946	1.960241650873522	-6.837716892832451	-0.07580603448152277	-2.338224729067406	-0.02129166434231161	-5.26028459977905	-5.260284599779157	-0.5768580256365439	-0.02569413646646824	-0.6477547359378073	-0.4331347627752954	4.695636770270233e-09	1.75110521550841e-08	-1.405540834461039e-08	2.642369594173347e-09	-1.917843193607513e-09	2.279566030832734e-08	2.511873124188138e-09
1.01	-0.5524771669347988	-0.08579389580487844	0.5754798753297954	1.837095175409681	-0.4675436260080649	0.01048376737475637	-0.2617967373650936	1.372783807202607	1.372783807202594	-0.08769538857799902	-0.1745305263352865	0.2080429687338238	-0.0172293819156765	-0.0007620897950677245	0.01354663393321751	0.02241579831684869	-0.07141326689079826	-0.003022423829203998	-0.01979019123006114	-2.831968850642819e-05	-0.05072983350350559	-0.05072983350350529	-0.0108315681832887	-5.422009802939711e-05	0.0147379735997454	0.00497516910942196	-0.3350472006301291	0.005650781890216885	-0.0001573544514127871	-0.3016433397747283	0.04180160279533401	0.03800428416496662	0.2856762542090656	-26.4354001690482	-13.05413692993423	3.090284071043281	6.928439184588593	-642.2907165316935	-53.8462053473145	-1.670786088583353	1.52466294999316	0.2569041554909917	1.954374887421884	-6.794869248595782	-0.04495968063020483	-2.375369600928048	0.01022214157062603	-5.255032199586772	-5.255032199586639	-0.4914961933549459	0.009895412305382802	-0.6440787509533027	-0.3915521923206239	-3.993471386793022e-09	8.27229810025194e-09	2.869534664621239e-08	3.629074900910625e-09	-1.232980394460015e-08	7.381293216871561e-08	-9.930405426137339e-09
1.02	-0.5524080799648968	-0.08564551216215295	0.575801762705351	1.836040773520385	-0.467576570619042	0.01016776496518148	-0.2617970111770117	1.372013743172728	1.372013743172712	-0.08782970417437566	-0.1745311869314349	0.2081579810558574	-0.01719991387629854	0.01457907247497389	0.01613328208249556	0.04195734095046399	-0.1394576802210551	-0.0035644048520037	-0.04340779540526167	-2.526729588588796e-05	-0.1032793164753984	-0.1032793164753967	-0.01603164218810294	-7.896769881734846e-05	0.008259375988524949	0.0009178280681902842	-0.334912942824906	0.005680608459192485	-0.000174046540190545	-0.3015251290486272	0.04168813300962364	0.0380597601498278	0.2855807593649547	-26.46301483805759	-13.08070319610913	3.10286716100916	6.860231254920842	-642.2177462423942	-53.88118970868234	-1.687787183156158	1.553148620220179	0.2612284370315023	1.955018742367319	-6.826411780074877	-0.07330116335990164	-2.335278586376714	-0.01988118515251969	-5.255881313871254	-5.255881313871146	-0.5769954569148043	-0.02691091117099772	-0.6538883723551925	-0.4339052947376544	-1.189571571421724e-08	7.275728189721313e-10	7.183151926029544e-08	4.943156408734278e-09	-2.223120168734866e-08	1.228937578872855e-07	-2.166491027546585e-08
1.03	-0.5521855475696075	-0.08547113346976559	0.5763188553769976	1.83430636353254	-0.4676147584315364	0.009615801194864869	-0.2617972222712215	1.370718397824562	1.370718397824583	-0.08801597344394199	-0.1745320159319962	0.2082079984576045	-0.01721092400070409	0.02993093228276825	0.01874883547873208	0.06144891438396143	-0.2073989122950497	-0.004058597313977444	-0.06696794568590904	-1.535734819721718e-05	-0.1557759820874987	-0.1557759820874997	-0.02121604606804482	-7.50422365361891e-05	0.001733692528728443	-0.00310757078806264	-0.3344861428854681	0.005743649862904583	-0.0002232335851553211	-0.3012571114589593	0.0416189066177761	0.03820802924247955	0.285286496834551	-26.45542997311302	-13.16285566181978	3.134732823232707	6.721137749987954	-641.8394840847723	-54.00779660083028	-1.716400640117626	1.526729987524035	0.2626769135296733	1.944378309160545	-6.774172323769572	-0.0353044128524056	-2.363852068198927	0.0116662144426228	-5.244486774908699	-5.244486774909183	-0.4882498473480825	0.01584192877680196	-0.6534696198062075	-0.385027329540468	-1.978993081889004e-08	-6.799866454414273e-09	1.149716247072689e-07	6.260578490038405e-09	-3.212738960348243e-08	1.71954823951347e-07	-3.339219294417195e-08
1.04	-0.5518093915109472	-0.08527040761889389	0.5770304941160431	1.831893302543415	-0.4676574533936977	0.008828742157883573	-0.261797286440014	1.36889850030227	1.368898500302326	-0.08825390415107084	-0.1745324461470718	0.2081924467673508	-0.01726182214336645	0.04530380514916155	0.02140271377936843	0.08086655443024242	-0.2751878804773577	-0.004465834785402271	-0.09042684873816335	4.117788013641356e-06	-0.2081897513007709	-0.2081897513007752	-0.02636392970055481	7.893797109453056e-07	-0.004854442411641396	-0.007059775583169439	-0.3340593429460258	0.00580669126661646	-0.0002724206301162321	-0.3009890938692919	0.04154968022592762	0.03835629833513042	0.2849922343041523	-26.45373430958509	-13.24387471489665	3.166300999707192	6.603779051565636	-641.5428175190717	-54.11306801972047	-1.756886184503447	1.557351231939974	0.2688934179114499	1.940232064924032	-6.795959001737574	-0.05591016525003685	-2.315029140698018	-0.01796814744808248	-5.239302034105671	-5.239302034105649	-0.5696914074283945	-0.01252968037764609	-0.6663786684698786	-0.4192664825083378	-2.641902093593461e-08	-1.084119292971383e-08	1.585758115767643e-07	9.069207971253573e-09	-4.140072278926088e-08	2.163566377335141e-07	-4.354383142124859e-08
1.05	-0.5512793838052203	-0.0850429483110922	0.5779358764889436	1.828803279279302	-0.4677035508635199	0.007807869082482301	-0.2617971551213426	1.366554893362623	1.366554893362662	-0.08854306019265651	-0.1745314096685739	0.2081106061444614	-0.01735163353775617	0.06070175821805922	0.02409566023503106	0.1001913257628624	-0.3427735336053914	-0.00471367531350484	-0.1137033365080696	2.031904878483029e-05	-0.260516898616197	-0.2605168986161973	-0.03145144584280728	0.0002571158691589002	-0.01153313764867931	-0.01086328602658808	-0.333337059720065	0.005923832051571809	-0.0003526558681018844	-0.3005845947258867	0.04146631710121143	0.0386011826421209	0.284484607348178	-26.43819872222507	-13.37789051441887	3.216156954853134	6.462461937839379	-640.9650771008869	-54.32372253565012	-1.8096778170212	1.531615227985492	0.2704745412614432	1.925800284979719	-6.733389114155536	-0.003243809199708257	-2.327327775986361	0.01114022820916802	-5.227199547073171	-5.22719954707259	-0.4759249492656891	0.05235509417759507	-0.6715320990088115	-0.3550322932939949	-3.30085758971158e-08	-1.47735783800732e-08	2.021945009907136e-07	1.192443768371595e-08	-5.065459176471573e-08	2.606128498818719e-07	-5.364623101733681e-08
1.06	-0.5505952769920804	-0.08478836368236031	0.5790339466986801	1.825038695354745	-0.467750931301145	0.006555557293212013	-0.2617969165969914	1.36368845925646	1.36368845925648	-0.08888262004199321	-0.1745262816690313	0.2079613951396641	-0.01747830783018717	0.07612362663179008	0.02682777796540756	0.1194041217974312	-0.4101000125661963	-0.004722428345981888	-0.1367145915119545	2.555892433360215e-05	-0.3127551846041066	-0.3127551846041032	-0.03644469125074101	0.0008190935814678468	-0.01832851879323974	-0.01443235519142285	-0.3326147764941018	0.006040972836526884	-0.0004328911060833061	-0.3001800955824819	0.04138295397649457	0.03884606694911059	0.2839769803922066	-26.42860949857693	-13.51070884608336	3.265643508965278	6.342914941916265	-640.4698762576742	-54.51411188132028	-1.875249623723988	1.562134300906608	0.2767276728542349	1.91783700531381	-6.744124168291846	-0.008092666124988523	-2.261982587493788	-0.02016042449257843	-5.221529768602333	-5.221529768602367	-0.5508372605646683	0.04860056419444494	-0.6897158499743714	-0.3723782267916311	-4.056354625812334e-08	-2.196751799982288e-08	2.435381058118909e-07	1.36831575795313e-08	-6.015028652055164e-08	3.038975449901437e-07	-6.440567269524826e-08
1.07	-0.5497567764414828	-0.08450621927812697	0.5803235069817564	1.820602263667075	-0.4677971927546438	0.005074523498625108	-0.261796673206628	1.360300201572697	1.360300201572678	-0.08927165392552355	-0.1745140806951561	0.20774359841785	-0.01763951292717723	0.09158408424269328	0.0296116466795496	0.138481494453623	-0.4771291731868352	-0.004485949112881927	-0.159440823282599	2.401907061443613e-05	-0.3648706332289427	-0.3648706332289412	-0.04134370438347634	0.001670020659810176	-0.0252543947001659	-0.0177667157105787	-0.3316062340268742	0.006182475047303717	-0.0005464205715190888	-0.2996359070946729	0.04137917356842852	0.03917041931316074	0.2832798800564119	-26.37287328838003	-13.69453859477655	3.332878509891509	6.136956179453636	-639.6770324403924	-54.7813759328188	-1.954243422874227	1.539134070722584	0.2808011412033026	1.898707274904755	-6.673748155445047	0.04607597294406141	-2.270289445080819	0.009984222485681347	-5.202679378794715	-5.202679378794969	-0.456701797481068	0.1107463321260942	-0.6975576809753926	-0.3077016057109197	-4.816986850210036e-08	-2.933494454347632e-08	2.847606954951547e-07	1.538355248509946e-08	-6.965884434981208e-08	3.47130563660113e-07	-7.52000634200652e-08
